<svg width="947" height="115" viewBox="0 0 947 115" fill="none" xmlns="http://www.w3.org/2000/svg">
<path d="M0 21.3245C0 11.0059 8.36492 2.64095 18.6836 2.64095H68.936C79.2546 2.64095 87.6195 11.0059 87.6195 21.3245V72.8654C87.6195 83.184 79.2546 91.549 68.9359 91.549H18.6835C8.3649 91.549 0 83.1841 0 72.8654V21.3245Z" fill="#E0024D"/>
<path fill-rule="evenodd" clip-rule="evenodd" d="M51.9528 42.2907C54.5281 42.2907 56.6167 44.378 56.6167 46.9547C56.6167 49.5314 54.5294 51.6187 51.9528 51.6187C49.3761 51.6187 47.2888 49.5314 47.2888 46.9547C47.2888 44.378 49.3761 42.2907 51.9528 42.2907Z" fill="white"/>
<path fill-rule="evenodd" clip-rule="evenodd" d="M36.2906 42.2907C38.866 42.2907 40.9546 44.378 40.9546 46.9547C40.9546 49.5314 38.8673 51.6187 36.2906 51.6187C33.714 51.6187 31.6267 49.5314 31.6267 46.9547C31.6267 44.378 33.714 42.2907 36.2906 42.2907Z" fill="white"/>
<path fill-rule="evenodd" clip-rule="evenodd" d="M44.1211 15.5262C41.9719 15.5262 39.5665 17.6599 39.5665 17.6599L9.66392 39.7797V51.1706L44.1211 25.9847L78.5795 51.1706V39.7797L48.6769 17.6599C48.6769 17.6599 46.2715 15.5262 44.1211 15.5262Z" fill="white"/>
<path fill-rule="evenodd" clip-rule="evenodd" d="M26.181 38.1045H16.7681V22.5235H26.181V38.1045Z" fill="white"/>
<path fill-rule="evenodd" clip-rule="evenodd" d="M71.6324 51.423C71.6324 66.6138 59.3131 78.9344 44.121 78.9344C28.9289 78.9344 16.6109 66.6138 16.6109 51.423H25.7355C25.7355 61.5751 33.9689 69.8098 44.121 69.8098C54.2731 69.8098 62.5079 61.5764 62.5079 51.423H71.6324Z" fill="white"/>
<path d="M119.615 89.095V25.8849H136.323V37.0372H137.064C138.381 33.3335 140.576 30.4116 143.648 28.2717C146.721 26.1318 150.397 25.0618 154.677 25.0618C159.012 25.0618 162.702 26.1455 165.747 28.3129C168.793 30.4528 170.823 33.3609 171.838 37.0372H172.496C173.786 33.4158 176.118 30.5214 179.492 28.354C182.894 26.1592 186.913 25.0618 191.55 25.0618C197.448 25.0618 202.236 26.9411 205.912 30.6997C209.616 34.4308 211.468 39.7258 211.468 46.5845V89.095H193.978V50.0413C193.978 46.5297 193.045 43.8959 191.179 42.1401C189.314 40.3842 186.982 39.5063 184.184 39.5063C181.001 39.5063 178.518 40.5214 176.735 42.5516C174.952 44.5543 174.06 47.2018 174.06 50.494V89.095H157.064V49.671C157.064 46.5708 156.172 44.1017 154.389 42.2635C152.633 40.4254 150.315 39.5063 147.434 39.5063C145.487 39.5063 143.731 40.0001 142.167 40.9878C140.631 41.948 139.41 43.306 138.504 45.0619C137.599 46.7903 137.146 48.8205 137.146 51.1524V89.095H119.615Z" fill="#E0024D"/>
<path d="M225.315 89.095V25.8849H242.846V89.095H225.315ZM234.122 17.7367C231.516 17.7367 229.28 16.8725 227.414 15.1441C225.576 13.3882 224.657 11.2895 224.657 8.84777C224.657 6.43349 225.576 4.36216 227.414 2.63376C229.28 0.877919 231.516 0 234.122 0C236.728 0 238.951 0.877919 240.789 2.63376C242.654 4.36216 243.587 6.43349 243.587 8.84777C243.587 11.2895 242.654 13.3882 240.789 15.1441C238.951 16.8725 236.728 17.7367 234.122 17.7367Z" fill="#E0024D"/>
<path d="M256.89 25.8849H274.42V92.2225C274.42 97.106 273.46 101.057 271.54 104.074C269.619 107.092 266.862 109.301 263.268 110.7C259.702 112.099 255.435 112.799 250.47 112.799C249.866 112.799 249.29 112.785 248.741 112.758C248.165 112.758 247.562 112.744 246.931 112.716V99.0127C247.397 99.0401 247.809 99.0538 248.165 99.0538C248.494 99.0813 248.851 99.095 249.235 99.095C252.061 99.095 254.036 98.4914 255.161 97.2843C256.313 96.1046 256.89 94.3213 256.89 91.9345V25.8849ZM265.614 17.7367C263.035 17.7367 260.813 16.8725 258.947 15.1441C257.082 13.3882 256.149 11.2895 256.149 8.84777C256.149 6.43349 257.082 4.36216 258.947 2.63376C260.813 0.877919 263.035 0 265.614 0C268.248 0 270.484 0.877919 272.322 2.63376C274.187 4.36216 275.12 6.43349 275.12 8.84777C275.12 11.2895 274.187 13.3882 272.322 15.1441C270.484 16.8725 268.248 17.7367 265.614 17.7367Z" fill="#E0024D"/>
<path d="M305.995 52.5516V89.095H288.464V25.8849H305.172V37.0372H305.912C307.312 33.3609 309.657 30.4528 312.949 28.3129C316.242 26.1455 320.233 25.0618 324.925 25.0618C329.314 25.0618 333.142 26.022 336.406 27.9425C339.671 29.8629 342.209 32.6064 344.019 36.173C345.83 39.7121 346.736 43.9371 346.736 48.8479V89.095H329.205V51.9755C329.232 48.1072 328.244 45.0893 326.242 42.922C324.239 40.7272 321.482 39.6298 317.97 39.6298C315.611 39.6298 313.526 40.1373 311.715 41.1524C309.932 42.1675 308.532 43.649 307.517 45.5969C306.53 47.5173 306.022 49.8356 305.995 52.5516Z" fill="#E0024D"/>
<path d="M373.022 89.095L355.82 25.8849H373.557L383.351 68.3541H383.927L394.133 25.8849H411.54L421.911 68.1072H422.446L432.075 25.8849H449.771L432.61 89.095H414.051L403.186 49.3417H402.404L391.54 89.095H373.022Z" fill="white"/>
<path d="M486.098 90.3295C479.706 90.3295 474.178 88.9715 469.514 86.2554C464.877 83.5119 461.297 79.6985 458.773 74.8151C456.249 69.9042 454.987 64.2115 454.987 57.7368C454.987 51.2073 456.249 45.5008 458.773 40.6174C461.297 35.7066 464.877 31.8931 469.514 29.1771C474.178 26.4336 479.706 25.0618 486.098 25.0618C492.49 25.0618 498.005 26.4336 502.641 29.1771C507.305 31.8931 510.899 35.7066 513.423 40.6174C515.947 45.5008 517.209 51.2073 517.209 57.7368C517.209 64.2115 515.947 69.9042 513.423 74.8151C510.899 79.6985 507.305 83.5119 502.641 86.2554C498.005 88.9715 492.49 90.3295 486.098 90.3295ZM486.18 76.7492C489.089 76.7492 491.517 75.9262 493.464 74.2801C495.412 72.6066 496.88 70.3295 497.868 67.4488C498.883 64.5681 499.39 61.2896 499.39 57.6134C499.39 53.9371 498.883 50.6586 497.868 47.7779C496.88 44.8973 495.412 42.6202 493.464 40.9466C491.517 39.2731 489.089 38.4363 486.18 38.4363C483.245 38.4363 480.776 39.2731 478.773 40.9466C476.798 42.6202 475.303 44.8973 474.287 47.7779C473.3 50.6586 472.806 53.9371 472.806 57.6134C472.806 61.2896 473.3 64.5681 474.287 67.4488C475.303 70.3295 476.798 72.6066 478.773 74.2801C480.776 75.9262 483.245 76.7492 486.18 76.7492Z" fill="white"/>
<path d="M546.14 52.5516V89.095H528.609V25.8849H545.316V37.0372H546.057C547.456 33.3609 549.802 30.4528 553.094 28.3129C556.386 26.1455 560.378 25.0618 565.07 25.0618C569.459 25.0618 573.286 26.022 576.551 27.9425C579.816 29.8629 582.354 32.6064 584.164 36.173C585.975 39.7121 586.88 43.9371 586.88 48.8479V89.095H569.349V51.9755C569.377 48.1072 568.389 45.0893 566.386 42.922C564.384 40.7272 561.627 39.6298 558.115 39.6298C555.755 39.6298 553.67 40.1373 551.86 41.1524C550.076 42.1675 548.677 43.649 547.662 45.5969C546.675 47.5173 546.167 49.8356 546.14 52.5516Z" fill="white"/>
<path d="M600.697 89.095V25.8849H618.228V89.095H600.697ZM609.504 17.7367C606.898 17.7367 604.662 16.8725 602.796 15.1441C600.958 13.3882 600.039 11.2895 600.039 8.84777C600.039 6.43349 600.958 4.36216 602.796 2.63376C604.662 0.877919 606.898 0 609.504 0C612.11 0 614.333 0.877919 616.171 2.63376C618.036 4.36216 618.969 6.43349 618.969 8.84777C618.969 11.2895 618.036 13.3882 616.171 15.1441C614.333 16.8725 612.11 17.7367 609.504 17.7367Z" fill="white"/>
<path d="M649.802 52.5516V89.095H632.271V25.8849H648.979V37.0372H649.72C651.119 33.3609 653.465 30.4528 656.757 28.3129C660.049 26.1455 664.041 25.0618 668.732 25.0618C673.122 25.0618 676.949 26.022 680.214 27.9425C683.479 29.8629 686.017 32.6064 687.827 36.173C689.638 39.7121 690.543 43.9371 690.543 48.8479V89.095H673.012V51.9755C673.04 48.1072 672.052 45.0893 670.049 42.922C668.047 40.7272 665.289 39.6298 661.778 39.6298C659.418 39.6298 657.333 40.1373 655.523 41.1524C653.739 42.1675 652.34 43.649 651.325 45.5969C650.337 47.5173 649.83 49.8356 649.802 52.5516Z" fill="white"/>
<path d="M732.838 114.116C727.159 114.116 722.289 113.334 718.229 111.77C714.196 110.234 710.986 108.135 708.599 105.474C706.212 102.812 704.662 99.822 703.949 96.5024L720.163 94.3213C720.657 95.5833 721.438 96.763 722.508 97.8604C723.578 98.9578 724.991 99.8357 726.747 100.494C728.53 101.18 730.698 101.523 733.249 101.523C737.063 101.523 740.204 100.59 742.673 98.7246C745.17 96.8865 746.418 93.8001 746.418 89.4653V77.9015H745.677C744.909 79.6573 743.757 81.3172 742.22 82.8809C740.684 84.4447 738.709 85.7205 736.294 86.7081C733.88 87.6958 731 88.1896 727.652 88.1896C722.906 88.1896 718.585 87.0922 714.689 84.8974C710.821 82.6752 707.735 79.287 705.43 74.7328C703.153 70.1511 702.015 64.3624 702.015 57.3665C702.015 50.2059 703.181 44.2251 705.513 39.424C707.844 34.6229 710.945 31.0289 714.813 28.6421C718.709 26.2552 722.975 25.0618 727.611 25.0618C731.15 25.0618 734.113 25.6654 736.5 26.8725C738.887 28.0522 740.808 29.5337 742.262 31.317C743.743 33.0728 744.882 34.8012 745.677 36.5022H746.336V25.8849H763.743V89.7122C763.743 95.0895 762.426 99.5888 759.793 103.21C757.159 106.832 753.51 109.548 748.846 111.358C744.21 113.197 738.873 114.116 732.838 114.116ZM733.208 75.0208C736.034 75.0208 738.421 74.3212 740.369 72.9221C742.344 71.4954 743.853 69.4653 744.895 66.8315C745.965 64.1703 746.5 60.9879 746.5 57.2841C746.5 53.5804 745.979 50.3705 744.937 47.6545C743.894 44.911 742.385 42.7848 740.41 41.2759C738.434 39.7669 736.034 39.0125 733.208 39.0125C730.327 39.0125 727.899 39.7944 725.924 41.3582C723.949 42.8945 722.454 45.0345 721.438 47.7779C720.423 50.5214 719.916 53.6902 719.916 57.2841C719.916 60.933 720.423 64.088 721.438 66.7492C722.481 69.383 723.976 71.4269 725.924 72.8809C727.899 74.3075 730.327 75.0208 733.208 75.0208Z" fill="white"/>
<path d="M777.694 89.095V25.8849H794.69V36.9137H795.348C796.5 32.9905 798.435 30.0275 801.151 28.0248C803.867 25.9946 806.994 24.9795 810.533 24.9795C811.411 24.9795 812.358 25.0344 813.373 25.1441C814.388 25.2539 815.28 25.4048 816.048 25.5968V41.1524C815.225 40.9055 814.086 40.686 812.632 40.494C811.178 40.3019 809.848 40.2059 808.64 40.2059C806.061 40.2059 803.757 40.7683 801.727 41.8932C799.724 42.9905 798.133 44.5269 796.953 46.5022C795.801 48.4775 795.225 50.7546 795.225 53.3335V89.095H777.694Z" fill="white"/>
<path d="M865.647 62.1813V25.8849H883.178V89.095H866.346V77.6134H865.688C864.261 81.3172 861.888 84.2938 858.569 86.5435C855.276 88.7932 851.257 89.918 846.511 89.918C842.286 89.918 838.569 88.9578 835.359 87.0373C832.149 85.1169 829.638 82.3871 827.828 78.848C826.044 75.3089 825.139 71.0702 825.112 66.1319V25.8849H842.643V63.0043C842.67 66.7355 843.671 69.6847 845.647 71.8521C847.622 74.0195 850.27 75.1031 853.589 75.1031C855.702 75.1031 857.677 74.623 859.515 73.6628C861.353 72.6751 862.835 71.2211 863.96 69.3007C865.112 67.3802 865.674 65.0071 865.647 62.1813Z" fill="white"/>
<path d="M897.2 89.095V25.8849H914.731V89.095H897.2ZM906.007 17.7367C903.401 17.7367 901.165 16.8725 899.299 15.1441C897.461 13.3882 896.542 11.2895 896.542 8.84777C896.542 6.43349 897.461 4.36216 899.299 2.63376C901.165 0.877919 903.401 0 906.007 0C908.613 0 910.836 0.877919 912.674 2.63376C914.539 4.36216 915.472 6.43349 915.472 8.84777C915.472 11.2895 914.539 13.3882 912.674 15.1441C910.836 16.8725 908.613 17.7367 906.007 17.7367Z" fill="white"/>
<path d="M946.306 4.81483V89.095H928.775V4.81483H946.306Z" fill="white"/>
</svg>
